<svg width="14" height="13" viewBox="0 0 14 13" fill="none" xmlns="http://www.w3.org/2000/svg">
<path d="M12.8501 7.10928C13.3195 7.10928 13.7001 6.72872 13.7001 6.25928C13.7001 5.78984 13.3195 5.40928 12.8501 5.40928L12.8501 6.25928L12.8501 7.10928ZM0.249057 5.65824C-0.0828886 5.99018 -0.0828886 6.52837 0.249057 6.86032L5.65842 12.2697C5.99037 12.6016 6.52856 12.6016 6.86051 12.2697C7.19245 11.9377 7.19245 11.3995 6.86051 11.0676L2.05218 6.25928L6.86051 1.45095C7.19245 1.119 7.19245 0.580815 6.86051 0.248869C6.52856 -0.0830763 5.99037 -0.0830763 5.65842 0.248869L0.249057 5.65824ZM12.8501 6.25928L12.8501 5.40928L0.850098 5.40928L0.850098 6.25928L0.850098 7.10928L12.8501 7.10928L12.8501 6.25928Z" fill="white"/>
</svg>
