<svg width="20" height="15" viewBox="0 0 20 15" fill="none" xmlns="http://www.w3.org/2000/svg">
<path d="M19 8.36426C19.5523 8.36426 20 7.91654 20 7.36426C20 6.81197 19.5523 6.36426 19 6.36426L19 7.36426L19 8.36426ZM0.292892 6.65715C-0.0976315 7.04768 -0.0976314 7.68084 0.292893 8.07137L6.65686 14.4353C7.04738 14.8259 7.68054 14.8259 8.07107 14.4353C8.46159 14.0448 8.46159 13.4116 8.07107 13.0211L2.41421 7.36426L8.07107 1.7074C8.46159 1.31688 8.46159 0.683715 8.07107 0.293191C7.68054 -0.0973334 7.04738 -0.0973333 6.65685 0.293191L0.292892 6.65715ZM19 7.36426L19 6.36426L1 6.36426L1 7.36426L1 8.36426L19 8.36426L19 7.36426Z" fill="#0D0D1A"/>
</svg>
