<svg width="30" height="30" viewBox="0 0 30 30" fill="none" xmlns="http://www.w3.org/2000/svg">
<rect width="30" height="30" fill="#1F0909"/>
<g filter="url(#filter0_d_2703_660)">
<path d="M15.85 9C15.85 8.53056 15.4694 8.15 15 8.15C14.5306 8.15 14.15 8.53056 14.15 9L15 9L15.85 9ZM14.399 21.601C14.7309 21.933 15.2691 21.933 15.601 21.601L21.0104 16.1917C21.3424 15.8597 21.3424 15.3215 21.0104 14.9896C20.6785 14.6576 20.1403 14.6576 19.8083 14.9896L15 19.7979L10.1917 14.9896C9.85973 14.6576 9.32154 14.6576 8.98959 14.9896C8.65765 15.3215 8.65765 15.8597 8.98959 16.1917L14.399 21.601ZM15 9L14.15 9L14.15 21L15 21L15.85 21L15.85 9L15 9Z" fill="#BD4A4A"/>
</g>
<defs>
<filter id="filter0_d_2703_660" x="6.74072" y="6.1499" width="16.5186" height="17.7002" filterUnits="userSpaceOnUse" color-interpolation-filters="sRGB">
<feFlood flood-opacity="0" result="BackgroundImageFix"/>
<feColorMatrix in="SourceAlpha" type="matrix" values="0 0 0 0 0 0 0 0 0 0 0 0 0 0 0 0 0 0 127 0" result="hardAlpha"/>
<feOffset/>
<feGaussianBlur stdDeviation="1"/>
<feComposite in2="hardAlpha" operator="out"/>
<feColorMatrix type="matrix" values="0 0 0 0 0.741176 0 0 0 0 0.290196 0 0 0 0 0.290196 0 0 0 1 0"/>
<feBlend mode="normal" in2="BackgroundImageFix" result="effect1_dropShadow_2703_660"/>
<feBlend mode="normal" in="SourceGraphic" in2="effect1_dropShadow_2703_660" result="shape"/>
</filter>
</defs>
</svg>
