<svg width="14" height="13" viewBox="0 0 14 13" fill="none" xmlns="http://www.w3.org/2000/svg">
<path d="M0.850098 5.40928C0.380656 5.40928 9.76529e-05 5.78984 9.76324e-05 6.25928C9.76119e-05 6.72872 0.380656 7.10928 0.850098 7.10928L0.850098 6.25928L0.850098 5.40928ZM13.4511 6.86032C13.7831 6.52837 13.7831 5.99018 13.4511 5.65824L8.04177 0.24887C7.70983 -0.0830757 7.17164 -0.0830757 6.83969 0.24887C6.50774 0.580816 6.50774 1.11901 6.83969 1.45095L11.648 6.25928L6.83969 11.0676C6.50774 11.3995 6.50774 11.9377 6.83969 12.2697C7.17164 12.6016 7.70983 12.6016 8.04177 12.2697L13.4511 6.86032ZM0.850098 6.25928L0.850098 7.10928L12.8501 7.10928L12.8501 6.25928L12.8501 5.40928L0.850098 5.40928L0.850098 6.25928Z" fill="white"/>
</svg>
