<svg width="45" height="45" viewBox="0 0 45 45" fill="none" xmlns="http://www.w3.org/2000/svg">
<g clip-path="url(#clip0_2318_1163)">
<circle cx="22.5" cy="22.5" r="22" fill="#2965F1" stroke="white"/>
<path d="M11.0149 18.5505L11.4577 23.4916H22.5148V18.5505H11.0149ZM10.125 8.5498L10.5741 13.4908H22.5148V8.5498H10.125V8.5498ZM22.5148 31.3829L22.4931 31.3887L16.9903 29.9028L16.6385 25.9621H11.6785L12.3706 33.7203L22.492 36.5299L22.5148 36.5237V31.3829Z" fill="#EBEBEB"/>
<path d="M33.983 18.5505L34.875 8.5498H22.4977V13.4908H29.4601L29.0105 18.5505H22.4977V23.4916H28.5821L28.0084 29.8997L22.4976 31.3871V36.5276L32.627 33.7203L32.7013 32.8855L33.8625 19.8773L33.983 18.5505V18.5505Z" fill="white"/>
</g>
<defs>
<clipPath id="clip0_2318_1163">
<rect width="45" height="45" fill="white"/>
</clipPath>
</defs>
</svg>
