<svg width="45" height="45" viewBox="0 0 45 45" fill="none" xmlns="http://www.w3.org/2000/svg">
<circle cx="22.5" cy="22.5" r="22" fill="#2B0503" stroke="white"/>
<path d="M22.8737 27.4772H16.1028L14.41 32.6155C14.3906 32.7721 14.2836 32.8504 14.089 32.8504H11.0245C10.83 32.8504 10.7619 32.7525 10.8203 32.5568L16.8908 15.1159C17.027 14.8223 17.1145 14.2742 17.1534 13.4717C17.1534 13.3542 17.2215 13.2955 17.3577 13.2955H21.5604C21.6577 13.2955 21.7355 13.3444 21.7939 13.4423L28.5648 32.5861C28.6232 32.7623 28.5648 32.8504 28.3897 32.8504H24.9459C24.8097 32.8504 24.7124 32.7819 24.654 32.6449L22.8737 27.4772ZM16.8616 24.6291H22.1149C22.0371 24.3551 21.6285 23.1121 20.8891 20.9002C20.1692 18.6687 19.6925 17.1419 19.4591 16.3198H19.4299C19.1964 17.3181 18.3403 20.0878 16.8616 24.6291Z" fill="#F2A032"/>
<path d="M30.3768 32.5861V18.7861C30.3768 18.6295 30.4546 18.5512 30.6103 18.5512H33.8498C34.0055 18.5512 34.0833 18.6295 34.0833 18.7861V32.6155C34.0833 32.7721 34.0055 32.8504 33.8498 32.8504H30.6395C30.4644 32.8504 30.3768 32.7623 30.3768 32.5861ZM33.6747 15.5857C33.3245 15.9381 32.8478 16.1142 32.2446 16.1142C31.6415 16.1142 31.1648 15.9381 30.8146 15.5857C30.4644 15.2334 30.2892 14.7538 30.2892 14.147C30.2892 13.5598 30.4741 13.0802 30.8438 12.7083C31.2134 12.3363 31.6901 12.1504 32.2738 12.1504C32.8575 12.1504 33.3245 12.3363 33.6747 12.7083C34.0249 13.0802 34.2 13.5598 34.2 14.147C34.2 14.7538 34.0249 15.2334 33.6747 15.5857Z" fill="#F2A032"/>
</svg>
