<svg width="45" height="45" viewBox="0 0 45 45" fill="none" xmlns="http://www.w3.org/2000/svg">
<g clip-path="url(#clip0_2318_1147)">
<circle cx="22.5" cy="22.5" r="22" fill="#F7DF1E" stroke="white"/>
<path d="M29.4602 30.5968C30.2029 31.8619 31.1692 32.7919 32.8782 32.7919C34.3139 32.7919 35.231 32.0433 35.231 31.0089C35.231 29.7694 34.2887 29.3304 32.7084 28.6092L31.8422 28.2215C29.342 27.1102 27.6809 25.718 27.6809 22.7749C27.6809 20.0638 29.6609 18 32.7553 18C34.9582 18 36.542 18.7999 37.6833 20.8943L34.9852 22.7017C34.3911 21.5904 33.7502 21.1525 32.7553 21.1525C31.7404 21.1525 31.0972 21.8242 31.0972 22.7017C31.0972 23.7861 31.741 24.2251 33.2276 24.8968L34.0938 25.2839C37.0377 26.601 38.6999 27.9437 38.6999 30.9625C38.6999 34.217 36.2494 36 32.9584 36C29.7405 36 27.6616 34.4002 26.6444 32.3034L29.4602 30.5968ZM17.2203 30.91C17.7646 31.9175 18.2598 32.7693 19.4502 32.7693C20.5886 32.7693 21.3067 32.3046 21.3067 30.4978V18.2064H24.7715V30.5467C24.7715 34.2897 22.6681 35.9933 19.5977 35.9933C16.8235 35.9933 15.2169 34.4955 14.3999 32.6914L17.2203 30.91Z" fill="black"/>
</g>
<defs>
<clipPath id="clip0_2318_1147">
<rect width="45" height="45" fill="white"/>
</clipPath>
</defs>
</svg>
