<svg width="361" height="332" viewBox="0 0 361 332" fill="none" xmlns="http://www.w3.org/2000/svg">
<line x1="76" y1="151" x2="156" y2="151" stroke="white" stroke-width="2"/>
<line x1="76" y1="31" x2="156" y2="31" stroke="white" stroke-width="2"/>
<line x1="297" y1="171" x2="297" y2="251" stroke="white" stroke-width="2"/>
<line x1="177" y1="52" x2="177" y2="132" stroke="white" stroke-width="2"/>
<line x1="196" y1="151" x2="276" y2="151" stroke="white" stroke-width="2"/>
<line x1="196" y1="31" x2="276" y2="31" stroke="white" stroke-width="2"/>
<circle cx="296" cy="152" r="19" fill="#0D0D1A" stroke="white" stroke-width="2"/>
<circle cx="176" cy="152" r="19" fill="#0D0D1A" stroke="white" stroke-width="2"/>
<path d="M93.5 178.5V200.5H16.5V178.5H93.5Z" fill="#0D0D1A"/>
<path d="M93.5 178.5V200.5H16.5V178.5H93.5Z" stroke="white"/>
<path d="M28.6083 194.568L31.8883 183.96H35.4083L38.6883 194.568L38.4003 195H36.4803L35.8083 192.76H31.4883L30.8163 195H28.8963L28.6083 194.568ZM32.1123 190.68H35.1843L33.7763 186.04H33.5203L32.1123 190.68ZM40.2886 195V183.96H45.5046C47.2966 183.96 48.1926 184.856 48.1926 186.648V187.608C48.1926 187.971 48.0859 188.28 47.8726 188.536L47.3126 189.208L47.9846 189.768C48.3366 190.056 48.5126 190.483 48.5126 191.048V192.312C48.5126 194.104 47.6166 195 45.8246 195H40.2886ZM42.5926 192.92H45.7286C46.0486 192.92 46.2086 192.76 46.2086 192.44V190.84C46.2086 190.52 46.0486 190.36 45.7286 190.36H42.5926V192.92ZM42.5926 188.28H45.4086C45.7286 188.28 45.8886 188.12 45.8886 187.8V186.52C45.8886 186.2 45.7286 186.04 45.4086 186.04H42.5926V188.28ZM50.5661 192.312V186.648C50.5661 184.856 51.4621 183.96 53.2541 183.96H56.9021C58.6941 183.96 59.5901 184.856 59.5901 186.648V192.312C59.5901 194.104 58.6941 195 56.9021 195H53.2541C51.4621 195 50.5661 194.104 50.5661 192.312ZM52.8701 192.44C52.8701 192.76 53.0301 192.92 53.3501 192.92H56.8061C57.1261 192.92 57.2861 192.76 57.2861 192.44V186.52C57.2861 186.2 57.1261 186.04 56.8061 186.04H53.3501C53.0301 186.04 52.8701 186.2 52.8701 186.52V192.44ZM61.9582 192.312V183.96H64.2622V192.44C64.2622 192.76 64.4222 192.92 64.7422 192.92H67.8782C68.1982 192.92 68.3582 192.76 68.3582 192.44V183.96H70.6622V192.312C70.6622 194.104 69.7662 195 67.9742 195H64.6462C62.8542 195 61.9582 194.104 61.9582 192.312ZM72.2668 186.04V183.96H81.2908V186.04H77.9308V195H75.6268V186.04H72.2668Z" fill="white"/>
<rect x="37" y="133" width="38" height="38" fill="#0D0D1A" stroke="white" stroke-width="2"/>
<path d="M348.5 297.5V319.5H244.5V297.5H348.5Z" fill="#0D0D1A"/>
<path d="M348.5 297.5V319.5H244.5V297.5H348.5Z" stroke="white"/>
<path d="M257.539 314V302.96H262.915C264.707 302.96 265.603 303.856 265.603 305.648V307.792C265.603 309.584 264.707 310.48 262.915 310.48H259.843V314H257.539ZM259.843 308.4H262.819C263.139 308.4 263.299 308.24 263.299 307.92V305.52C263.299 305.2 263.139 305.04 262.819 305.04H259.843V308.4ZM267.742 314V302.96H273.118C274.91 302.96 275.806 303.856 275.806 305.648V307.472C275.806 308.805 275.31 309.637 274.318 309.968L276.126 313.52L275.854 314H273.87L271.918 310.16H270.046V314H267.742ZM270.046 308.08H273.022C273.342 308.08 273.502 307.92 273.502 307.6V305.52C273.502 305.2 273.342 305.04 273.022 305.04H270.046V308.08ZM277.957 311.312V305.648C277.957 303.856 278.853 302.96 280.645 302.96H284.293C286.085 302.96 286.981 303.856 286.981 305.648V311.312C286.981 313.104 286.085 314 284.293 314H280.645C278.853 314 277.957 313.104 277.957 311.312ZM280.261 311.44C280.261 311.76 280.421 311.92 280.741 311.92H284.197C284.517 311.92 284.677 311.76 284.677 311.44V305.52C284.677 305.2 284.517 305.04 284.197 305.04H280.741C280.421 305.04 280.261 305.2 280.261 305.52V311.44ZM288.965 311.312V309.2H291.269V311.44C291.269 311.76 291.429 311.92 291.749 311.92H293.925C294.245 311.92 294.405 311.76 294.405 311.44V305.04H291.397V302.96H296.709V311.312C296.709 313.104 295.813 314 294.021 314H291.653C289.861 314 288.965 313.104 288.965 311.312ZM299.242 314V302.96H306.794V305.04H301.546V307.28H306.314V309.36H301.546V311.92H306.794V314H299.242ZM308.738 311.312V305.648C308.738 303.856 309.634 302.96 311.426 302.96H315.698L316.77 303.792V305.04H311.522C311.202 305.04 311.042 305.2 311.042 305.52V311.44C311.042 311.76 311.202 311.92 311.522 311.92H316.77V313.168L315.698 314H311.426C309.634 314 308.738 313.104 308.738 311.312ZM317.954 305.04V302.96H326.978V305.04H323.618V314H321.314V305.04H317.954ZM328.199 313.168V311.92H333.159C333.479 311.92 333.639 311.76 333.639 311.44V310.288C333.639 309.979 333.506 309.803 333.239 309.76L330.119 309.12C328.839 308.864 328.199 308.005 328.199 306.544V305.648C328.199 303.856 329.095 302.96 330.887 302.96H334.551L335.623 303.792V305.04H330.983C330.663 305.04 330.503 305.2 330.503 305.52V306.56C330.503 306.859 330.637 307.035 330.903 307.088L334.023 307.712C335.303 307.968 335.943 308.827 335.943 310.288V311.312C335.943 313.104 335.047 314 333.255 314H329.271L328.199 313.168Z" fill="white"/>
<rect x="277" y="252" width="38" height="38" fill="#0D0D1A" stroke="white" stroke-width="2"/>
<circle cx="296" cy="32" r="19" fill="#0D0D1A" stroke="white" stroke-width="2"/>
<circle cx="176" cy="32" r="19" fill="#0D0D1A" stroke="white" stroke-width="2"/>
<path d="M100.5 58.5V80.5H12.5V58.5H100.5Z" fill="#0D0D1A"/>
<path d="M100.5 58.5V80.5H12.5V58.5H100.5Z" stroke="white"/>
<path d="M25.5151 75V63.96H30.8911C32.6831 63.96 33.5791 64.856 33.5791 66.648V68.792C33.5791 70.584 32.6831 71.48 30.8911 71.48H27.8191V75H25.5151ZM27.8191 69.4H30.7951C31.1151 69.4 31.2751 69.24 31.2751 68.92V66.52C31.2751 66.2 31.1151 66.04 30.7951 66.04H27.8191V69.4ZM35.7183 75V63.96H41.0943C42.8863 63.96 43.7823 64.856 43.7823 66.648V68.472C43.7823 69.8053 43.2863 70.6373 42.2943 70.968L44.1023 74.52L43.8303 75H41.8463L39.8943 71.16H38.0223V75H35.7183ZM38.0223 69.08H40.9983C41.3183 69.08 41.4783 68.92 41.4783 68.6V66.52C41.4783 66.2 41.3183 66.04 40.9983 66.04H38.0223V69.08ZM45.9333 72.312V66.648C45.9333 64.856 46.8293 63.96 48.6213 63.96H52.2693C54.0613 63.96 54.9573 64.856 54.9573 66.648V72.312C54.9573 74.104 54.0613 75 52.2693 75H48.6213C46.8293 75 45.9333 74.104 45.9333 72.312ZM48.2373 72.44C48.2373 72.76 48.3973 72.92 48.7173 72.92H52.1733C52.4933 72.92 52.6533 72.76 52.6533 72.44V66.52C52.6533 66.2 52.4933 66.04 52.1733 66.04H48.7173C48.3973 66.04 48.2373 66.2 48.2373 66.52V72.44ZM57.4214 75V63.96H64.9734V66.04H59.7254V68.76H64.4934V70.84H59.7254V75H57.4214ZM66.7651 75V63.96H69.0691V75H66.7651ZM71.687 75V63.96H73.991V72.92H78.759V75H71.687ZM80.4526 75V63.96H88.0046V66.04H82.7566V68.28H87.5246V70.36H82.7566V72.92H88.0046V75H80.4526Z" fill="white"/>
<rect x="37" y="13" width="38" height="38" fill="#0D0D1A" stroke="white" stroke-width="2"/>
</svg>
