<svg width="45" height="45" viewBox="0 0 45 45" fill="none" xmlns="http://www.w3.org/2000/svg">
<g clip-path="url(#clip0_2318_1168)">
<circle cx="22.5" cy="22.5" r="22" fill="#777BB3" stroke="white"/>
<path d="M10.6154 25.1283C11.7095 25.1283 12.5263 24.9265 13.0432 24.5288C13.5545 24.1351 13.9076 23.453 14.0927 22.5016C14.2653 21.6123 14.1996 20.9914 13.8974 20.6563C13.5884 20.314 12.9204 20.1404 11.9119 20.1404H10.1634L9.194 25.1283H10.6154ZM4.89626 31.2725C4.81509 31.2725 4.73801 31.2362 4.68641 31.1734C4.63471 31.1108 4.61376 31.0282 4.62927 30.9485L7.1983 17.7306C7.22315 17.6028 7.33515 17.5105 7.46538 17.5105H13.0023C14.7424 17.5105 16.0376 17.9829 16.8517 18.915C17.6702 19.8519 17.923 21.1615 17.6029 22.8074C17.4727 23.478 17.2487 24.1007 16.9372 24.6583C16.6253 25.2165 16.2131 25.7329 15.7119 26.1936C15.1119 26.7552 14.4328 27.1624 13.6953 27.402C12.9695 27.6384 12.0374 27.7583 10.925 27.7583H8.68296L8.0427 31.0523C8.01785 31.1801 7.90594 31.2725 7.77572 31.2725H4.89626Z" fill="black"/>
<path d="M10.3877 20.4129H11.912C13.1292 20.4129 13.552 20.68 13.6956 20.8391C13.9339 21.1034 13.9789 21.6606 13.8258 22.4504C13.6536 23.3346 13.3346 23.9615 12.8773 24.3136C12.4092 24.674 11.6481 24.8566 10.6155 24.8566H9.52412L10.3877 20.4129ZM13.0024 17.2388H7.4654C7.20494 17.2388 6.98103 17.4234 6.93133 17.6791L4.3623 30.897C4.33129 31.0566 4.37319 31.2215 4.47648 31.3469C4.57987 31.4724 4.73386 31.5449 4.89637 31.5449H7.77573C8.03628 31.5449 8.26019 31.3603 8.30989 31.1046L8.90735 28.0307H10.9251C12.0661 28.0307 13.0267 27.9063 13.7799 27.661C14.5544 27.4093 15.2671 26.9826 15.8978 26.3928C16.4195 25.9129 16.8491 25.3742 17.1747 24.7915C17.5004 24.2087 17.7343 23.5587 17.8701 22.8597C18.207 21.1272 17.9333 19.7398 17.0567 18.7364C16.1887 17.7427 14.8245 17.2388 13.0024 17.2388ZM8.864 25.4008H10.6155C11.7764 25.4008 12.6411 25.1821 13.2093 24.7447C13.7775 24.3072 14.1608 23.5771 14.3599 22.554C14.5505 21.5716 14.4637 20.8784 14.0995 20.4746C13.735 20.0707 13.0059 19.8688 11.912 19.8688H9.9392L8.864 25.4008V25.4008ZM13.0024 17.7829C14.6681 17.7829 15.8832 18.22 16.647 19.0944C17.4107 19.9687 17.6407 21.1891 17.336 22.7559C17.2105 23.4014 16.9984 23.9915 16.6998 24.5261C16.4008 25.061 16.0104 25.5502 15.5279 25.9938C14.9529 26.5318 14.3142 26.9153 13.6114 27.1436C12.9085 27.3726 12.0133 27.4866 10.9251 27.4866H8.45871L7.77573 31.0008H4.89637L7.4654 17.7829H13.0024" fill="white"/>
<path d="M24.205 27.7588C24.1237 27.7588 24.0467 27.7225 23.9951 27.6598C23.9433 27.5971 23.9224 27.5147 23.9379 27.4348L25.0743 21.5864C25.1824 21.0302 25.1557 20.631 24.9993 20.4623C24.9035 20.3592 24.6159 20.1863 23.7653 20.1863H21.7065L20.2777 27.5386C20.2528 27.6665 20.1408 27.7588 20.0106 27.7588H17.1539C17.0727 27.7588 16.9957 27.7225 16.944 27.6598C16.8923 27.5971 16.8713 27.5146 16.8868 27.4348L19.4559 14.2169C19.4807 14.0891 19.5927 13.9968 19.7229 13.9968H22.5796C22.6609 13.9968 22.7379 14.0331 22.7896 14.0957C22.8413 14.1585 22.8622 14.2409 22.8467 14.3207L22.2268 17.511H24.4416C26.1288 17.511 27.273 17.8084 27.9393 18.4204C28.6186 19.0447 28.8305 20.0429 28.5694 21.3876L27.3741 27.5386C27.3492 27.6665 27.2373 27.7588 27.107 27.7588H24.205Z" fill="black"/>
<path d="M22.5797 13.7241H19.7231C19.4625 13.7241 19.2386 13.9088 19.1889 14.1644L16.6199 27.3824C16.5889 27.5419 16.6308 27.7069 16.7341 27.8323C16.8375 27.9577 16.9915 28.0303 17.154 28.0303H20.0107C20.2712 28.0303 20.4952 27.8456 20.5449 27.59L21.9309 20.4578H23.7654C24.6145 20.4578 24.7927 20.6391 24.7999 20.6469C24.8514 20.7024 24.9192 20.959 24.8073 21.534L23.6709 27.3824C23.6399 27.5419 23.6818 27.7069 23.7852 27.8323C23.8886 27.9577 24.0426 28.0303 24.2051 28.0303H27.1071C27.3676 28.0303 27.5916 27.8456 27.6413 27.59L28.8364 21.439C29.1169 19.9952 28.877 18.9121 28.1235 18.2196C27.4046 17.5593 26.2002 17.2383 24.4417 17.2383H22.5568L23.1139 14.3721C23.1448 14.2126 23.103 14.0475 22.9996 13.9222C22.8963 13.7968 22.7423 13.7241 22.5797 13.7241ZM22.5797 14.2683L21.8968 17.7825H24.4417C26.043 17.7825 27.1475 18.062 27.7554 18.6202C28.3632 19.1789 28.5453 20.084 28.3024 21.3353L27.1071 27.4861H24.2051L25.3415 21.6378C25.4708 20.9725 25.4233 20.5187 25.1987 20.2768C24.9741 20.0348 24.4963 19.9136 23.7654 19.9136H21.4822L20.0107 27.4861H17.154L19.7231 14.2683H22.5797Z" fill="white"/>
<path d="M33.0895 25.1283C34.1836 25.1283 35.0005 24.9265 35.5173 24.5288C36.0286 24.1352 36.3817 23.4531 36.5669 22.5016C36.7395 21.6123 36.6738 20.9914 36.3715 20.6563C36.0625 20.314 35.3945 20.1404 34.386 20.1404H32.6375L31.6681 25.1283H33.0895ZM27.3705 31.2725C27.2893 31.2725 27.2122 31.2362 27.1606 31.1734C27.1089 31.1108 27.0879 31.0282 27.1034 30.9485L29.6724 17.7306C29.6973 17.6028 29.8093 17.5105 29.9396 17.5105H35.4764C37.2166 17.5105 38.5117 17.9829 39.3259 18.915C40.1444 19.8518 40.3971 21.1614 40.0771 22.8074C39.9467 23.478 39.7228 24.1007 39.4113 24.6583C39.0994 25.2165 38.6872 25.7329 38.186 26.1936C37.586 26.7552 36.9069 27.1624 36.1694 27.402C35.4437 27.6384 34.5116 27.7583 33.3991 27.7583H31.157L30.517 31.0523C30.4921 31.1801 30.3801 31.2725 30.2498 31.2725H27.3705Z" fill="black"/>
<path d="M32.8618 20.4129H34.3861C35.6032 20.4129 36.026 20.68 36.1696 20.8391C36.4081 21.1034 36.4531 21.6606 36.2998 22.4503C36.1277 23.3346 35.8085 23.9615 35.3514 24.3136C34.8832 24.674 34.1222 24.8566 33.0895 24.8566H31.9982L32.8618 20.4129ZM35.4764 17.2388H29.9395C29.6791 17.2388 29.4552 17.4234 29.4055 17.6791L26.8364 30.897C26.8054 31.0566 26.8473 31.2215 26.9506 31.3469C27.054 31.4724 27.208 31.5449 27.3705 31.5449H30.2499C30.5103 31.5449 30.7343 31.3603 30.784 31.1046L31.3814 28.0307H33.3991C34.5402 28.0307 35.5007 27.9063 36.2539 27.661C37.0285 27.4093 37.7413 26.9826 38.372 26.3926C38.8937 25.9128 39.3232 25.3742 39.6487 24.7915C39.9744 24.2087 40.2084 23.5587 40.3441 22.8597C40.681 21.1271 40.4073 19.7397 39.5308 18.7363C38.6627 17.7426 37.2986 17.2388 35.4764 17.2388ZM31.3381 25.4008H33.0895C34.2504 25.4008 35.1151 25.1821 35.6833 24.7447C36.2516 24.3072 36.6348 23.5771 36.8339 22.554C37.0246 21.5716 36.9378 20.8784 36.5736 20.4746C36.209 20.0707 35.48 19.8688 34.3861 19.8688H32.4132L31.3381 25.4008ZM35.4764 17.7829C37.1421 17.7829 38.3572 18.22 39.121 19.0944C39.8848 19.9687 40.1147 21.1891 39.81 22.7559C39.6846 23.4014 39.4724 23.9915 39.1738 24.5261C38.8748 25.061 38.4844 25.5502 38.0019 25.9938C37.427 26.5318 36.7882 26.9153 36.0854 27.1436C35.3826 27.3726 34.4874 27.4866 33.3991 27.4866H30.9327L30.2499 31.0008H27.3705L29.9395 17.7829H35.4764" fill="white"/>
</g>
<defs>
<clipPath id="clip0_2318_1168">
<rect width="45" height="45" fill="white"/>
</clipPath>
</defs>
</svg>
