<svg width="45" height="45" viewBox="0 0 45 45" fill="none" xmlns="http://www.w3.org/2000/svg">
<g clip-path="url(#clip0_2318_1150)">
<circle cx="22.5" cy="22.5" r="22" fill="#000B1D" stroke="white"/>
<g clip-path="url(#clip1_2318_1150)">
<path d="M22.5001 25.4748C24.2279 25.4748 25.6285 24.0923 25.6285 22.3868C25.6285 20.6814 24.2279 19.2988 22.5001 19.2988C20.7722 19.2988 19.3716 20.6814 19.3716 22.3868C19.3716 24.0923 20.7722 25.4748 22.5001 25.4748Z" fill="#61DAFB"/>
<path fill-rule="evenodd" clip-rule="evenodd" d="M7.52214 20.4605C6.76307 21.1368 6.44419 21.7892 6.44419 22.3873C6.44419 22.9854 6.76307 23.6378 7.52214 24.3141C8.28112 24.9904 9.42046 25.6325 10.8906 26.1866C13.8257 27.2928 17.9301 27.9921 22.4999 27.9921C27.0697 27.9921 31.174 27.2928 34.1092 26.1866C35.5793 25.6325 36.7187 24.9904 37.4777 24.3141C38.2367 23.6378 38.5556 22.9854 38.5556 22.3873C38.5556 21.7892 38.2367 21.1368 37.4777 20.4605C36.7187 19.7842 35.5793 19.142 34.1092 18.588C31.174 17.4818 27.0697 16.7824 22.4999 16.7824C17.9301 16.7824 13.8257 17.4818 10.8906 18.588C9.42046 19.142 8.28112 19.7842 7.52214 20.4605ZM10.3689 17.2394C13.5094 16.0558 17.7985 15.3389 22.4999 15.3389C27.2012 15.3389 31.4904 16.0558 34.6309 17.2394C36.1986 17.8302 37.5177 18.5514 38.4576 19.3889C39.3975 20.2264 40.0181 21.2384 40.0181 22.3873C40.0181 23.5362 39.3975 24.5482 38.4576 25.3857C37.5177 26.2232 36.1986 26.9444 34.6309 27.5352C31.4904 28.7188 27.2012 29.4357 22.4999 29.4357C17.7985 29.4357 13.5094 28.7188 10.3689 27.5352C8.80115 26.9444 7.48209 26.2232 6.54215 25.3857C5.60228 24.5482 4.98169 23.5362 4.98169 22.3873C4.98169 21.2384 5.60228 20.2264 6.54215 19.3889C7.48209 18.5514 8.80115 17.8302 10.3689 17.2394Z" fill="#61DAFB"/>
<path fill-rule="evenodd" clip-rule="evenodd" d="M16.7015 8.62012C15.7285 8.30943 14.9967 8.36302 14.4719 8.66208C13.9471 8.96115 13.5342 9.55991 13.3203 10.547C13.1065 11.5339 13.1128 12.8289 13.3617 14.3626C13.8587 17.4247 15.2973 21.2829 17.5822 25.1893C19.8671 29.0956 22.5329 32.2544 24.971 34.2104C26.1922 35.19 27.3252 35.8429 28.2981 36.1535C29.271 36.4642 30.0028 36.4106 30.5276 36.1116C31.0524 35.8125 31.4653 35.2137 31.6792 34.2267C31.8931 33.2398 31.8868 31.9448 31.6379 30.4111C31.1408 27.3489 29.7023 23.4908 27.4173 19.5844C25.1324 15.678 22.4667 12.5192 20.0285 10.5633C18.8074 9.58363 17.6743 8.93077 16.7015 8.62012ZM20.9509 9.44304C23.5596 11.5358 26.3332 14.8438 28.6839 18.8626C31.0346 22.8814 32.5501 26.9064 33.0819 30.1827C33.3474 31.8183 33.3742 33.3064 33.1094 34.5286C32.8445 35.7508 32.2669 36.7873 31.2589 37.3618C30.2508 37.9362 29.0526 37.9117 27.8479 37.527C26.6431 37.1423 25.3509 36.3753 24.0486 35.3306C21.4399 33.2379 18.6663 29.9299 16.3157 25.911C13.965 21.8922 12.4494 17.8673 11.9176 14.591C11.6521 12.9554 11.6253 11.4673 11.8902 10.245C12.155 9.02287 12.7326 7.98637 13.7407 7.41191C14.7487 6.83745 15.9469 6.86194 17.1516 7.24662C18.3564 7.63134 19.6487 8.39833 20.9509 9.44304Z" fill="#61DAFB"/>
<path fill-rule="evenodd" clip-rule="evenodd" d="M31.6793 10.5474C31.4654 9.56031 31.0525 8.96155 30.5277 8.66249C30.0029 8.36342 29.2712 8.30983 28.2982 8.62052C27.3254 8.93117 26.1923 9.58403 24.9711 10.5637C22.533 12.5196 19.8672 15.6784 17.5823 19.5848C15.2974 23.4912 13.8588 27.3493 13.3618 30.4115C13.1129 31.9452 13.1066 33.2402 13.3204 34.2271C13.5343 35.2142 13.9472 35.8129 14.472 36.112C14.9968 36.411 15.7286 36.4646 16.7016 36.1539C17.6744 35.8433 18.8075 35.1904 20.0286 34.2108C22.4668 32.2548 25.1325 29.096 27.4175 25.1897C29.7024 21.2833 31.1409 17.4251 31.638 14.363C31.8869 12.8293 31.8932 11.5343 31.6793 10.5474ZM33.0821 14.5914C32.5503 17.8677 31.0347 21.8926 28.684 25.9114C26.3333 29.9303 23.5597 33.2383 20.951 35.331C19.6488 36.3757 18.3565 37.1427 17.1517 37.5274C15.947 37.9121 14.7488 37.9366 13.7408 37.3622C12.7328 36.7877 12.1551 35.7512 11.8903 34.529C11.6254 33.3068 11.6522 31.8187 11.9177 30.1831C12.4495 26.9068 13.9651 22.8818 16.3158 18.863C18.6664 14.8442 21.44 11.5362 24.0487 9.44344C25.351 8.39873 26.6432 7.63175 27.848 7.24703C29.0527 6.86234 30.251 6.83785 31.259 7.41231C32.267 7.98677 32.8446 9.02327 33.1095 10.2454C33.3743 11.4677 33.3475 12.9558 33.0821 14.5914Z" fill="#61DAFB"/>
</g>
</g>
<defs>
<clipPath id="clip0_2318_1150">
<rect width="45" height="45" fill="white"/>
</clipPath>
<clipPath id="clip1_2318_1150">
<rect width="35.1" height="30.825" fill="white" transform="translate(4.94995 6.97461)"/>
</clipPath>
</defs>
</svg>
