<svg width="598" height="598" viewBox="0 0 598 598" fill="none" xmlns="http://www.w3.org/2000/svg">
<g filter="url(#filter0_d_2734_1158)">
<path d="M521.24 493C467.164 554.897 387.649 594 299 594C210.351 594 130.836 554.897 76.7598 493H78.0889C131.97 554.307 210.966 593 299 593C387.034 593 466.03 554.307 519.911 493H521.24Z" fill="#BD4A4A"/>
<path d="M28.7705 183C13.473 218.59 5 257.805 5 299C5 339.809 13.3159 378.676 28.3438 414H27.2559C12.2819 378.661 4 339.797 4 299C4 257.817 12.4398 218.606 27.6826 183H28.7705Z" fill="#BD4A4A"/>
<path d="M570.317 183C585.56 218.606 594 257.817 594 299C594 339.797 585.718 378.661 570.744 414H569.656C584.684 378.676 593 339.809 593 299C593 257.805 584.527 218.59 569.229 183H570.317Z" fill="#BD4A4A"/>
<path d="M299 4C387.17 4 466.305 42.682 520.362 104H519.029C465.17 43.2724 386.555 5 299 5C211.445 5 132.83 43.2724 78.9707 104H77.6377C131.695 42.682 210.83 4 299 4Z" fill="#BD4A4A"/>
</g>
<defs>
<filter id="filter0_d_2734_1158" x="0" y="0" width="598" height="598" filterUnits="userSpaceOnUse" color-interpolation-filters="sRGB">
<feFlood flood-opacity="0" result="BackgroundImageFix"/>
<feColorMatrix in="SourceAlpha" type="matrix" values="0 0 0 0 0 0 0 0 0 0 0 0 0 0 0 0 0 0 127 0" result="hardAlpha"/>
<feOffset/>
<feGaussianBlur stdDeviation="2"/>
<feComposite in2="hardAlpha" operator="out"/>
<feColorMatrix type="matrix" values="0 0 0 0 0.741176 0 0 0 0 0.290196 0 0 0 0 0.290196 0 0 0 1 0"/>
<feBlend mode="normal" in2="BackgroundImageFix" result="effect1_dropShadow_2734_1158"/>
<feBlend mode="normal" in="SourceGraphic" in2="effect1_dropShadow_2734_1158" result="shape"/>
</filter>
</defs>
</svg>
