<svg width="19" height="17" viewBox="0 0 19 17" fill="none" xmlns="http://www.w3.org/2000/svg">
<g clip-path="url(#clip0_2500_1514)">
<path d="M0.814942 2.95112L1.48591 3.54158L2.8189 2.02966L2.81891 15.2657L1.48591 13.7627L0.814942 14.3554L3.23714 17.084L5.71526 14.2659L5.04429 13.6755L3.71353 15.1874L3.71353 1.95362L5.04652 3.45435L5.71526 2.86166L3.29529 0.133051L0.814942 2.95112Z" fill="#18BCE0"/>
<path d="M10.1364 11.7938L12.7174 11.7647L11.7355 13.221C8.81681 13.9255 9.49226 15.1333 9.69802 15.2809C10.161 15.6141 12.6816 15.679 13.9341 14.9118C15.2112 14.129 18.0426 10.8634 18.0426 10.3154L18.0426 6.12636C18.0426 5.52249 17.7228 4.94769 17.2554 4.56524C16.7879 4.18278 16.1863 3.39999 15.0613 3.16515C13.5695 2.85426 11.1943 3.16515 10.1252 3.16515C9.92615 3.16515 9.06507 3.24343 9.07626 3.79586C9.13441 6.3858 10.1207 4.86941 10.1207 4.86941C10.1207 4.86941 8.70498 3.51182 8.70498 6.00782C8.70498 8.07888 10.1185 6.97626 10.1185 6.97626C10.1185 6.97626 8.45002 5.96533 8.45002 8.33609C8.45002 10.2439 10.1274 9.36267 10.1274 9.36267L2.9995 9.54831C2.37774 9.54831 1.87451 10.0515 1.87451 10.6733C1.87451 11.2951 2.37774 11.7983 2.99951 11.7983L10.1364 11.7983L10.1364 11.7938Z" fill="white"/>
</g>
<defs>
<clipPath id="clip0_2500_1514">
<rect width="16.9509" height="18.0424" fill="white" transform="translate(7.40949e-07 16.9512) rotate(-90)"/>
</clipPath>
</defs>
</svg>
