<svg width="30" height="30" viewBox="0 0 30 30" fill="none" xmlns="http://www.w3.org/2000/svg">
<rect width="30" height="30" fill="#1F0909"/>
<g clip-path="url(#clip0_2703_375)">
<g filter="url(#filter0_d_2703_375)">
<path d="M4.99365 8.26366L5.8118 8.98363L7.43719 7.14007L7.43719 23.2794L5.8118 21.4467L4.99365 22.1694L7.94717 25.4966L10.9689 22.0604L10.1507 21.3404L8.52805 23.184L8.52805 7.04735L10.1534 8.87727L10.9689 8.15457L8.01807 4.82744L4.99365 8.26366Z" fill="white"/>
</g>
<g filter="url(#filter1_d_2703_375)">
<path d="M16.3598 19.0455L19.5069 19.01L18.3097 20.7857C14.7508 21.6448 15.5744 23.1174 15.8253 23.2974C16.3898 23.7038 19.4633 23.7829 20.9905 22.8474C22.5477 21.8929 26.0003 17.911 26.0003 17.2428L26.0003 12.1348C26.0003 11.3985 25.6103 10.6976 25.0403 10.2313C24.4703 9.76495 23.7367 8.81044 22.365 8.52409C20.546 8.14502 17.6497 8.52409 16.3461 8.52409C16.1034 8.52409 15.0535 8.61954 15.0671 9.29315C15.138 12.4512 16.3407 10.6022 16.3407 10.6022C16.3407 10.6022 14.6144 8.9468 14.6144 11.9903C14.6144 14.5157 16.338 13.1712 16.338 13.1712C16.338 13.1712 14.3035 11.9385 14.3035 14.8293C14.3035 17.1556 16.3489 16.0811 16.3489 16.0811L7.65741 16.3074C6.89926 16.3074 6.28564 16.921 6.28564 17.6792C6.28564 18.4373 6.89926 19.0509 7.65741 19.0509L16.3598 19.0509L16.3598 19.0455Z" fill="#BD4A4A"/>
</g>
</g>
<defs>
<filter id="filter0_d_2703_375" x="2.99365" y="2.82764" width="9.9751" height="24.6689" filterUnits="userSpaceOnUse" color-interpolation-filters="sRGB">
<feFlood flood-opacity="0" result="BackgroundImageFix"/>
<feColorMatrix in="SourceAlpha" type="matrix" values="0 0 0 0 0 0 0 0 0 0 0 0 0 0 0 0 0 0 127 0" result="hardAlpha"/>
<feOffset/>
<feGaussianBlur stdDeviation="1"/>
<feComposite in2="hardAlpha" operator="out"/>
<feColorMatrix type="matrix" values="0 0 0 0 1 0 0 0 0 1 0 0 0 0 1 0 0 0 1 0"/>
<feBlend mode="normal" in2="BackgroundImageFix" result="effect1_dropShadow_2703_375"/>
<feBlend mode="normal" in="SourceGraphic" in2="effect1_dropShadow_2703_375" result="shape"/>
</filter>
<filter id="filter1_d_2703_375" x="4.28564" y="6.35547" width="23.7148" height="19.23" filterUnits="userSpaceOnUse" color-interpolation-filters="sRGB">
<feFlood flood-opacity="0" result="BackgroundImageFix"/>
<feColorMatrix in="SourceAlpha" type="matrix" values="0 0 0 0 0 0 0 0 0 0 0 0 0 0 0 0 0 0 127 0" result="hardAlpha"/>
<feOffset/>
<feGaussianBlur stdDeviation="1"/>
<feComposite in2="hardAlpha" operator="out"/>
<feColorMatrix type="matrix" values="0 0 0 0 0.741176 0 0 0 0 0.290196 0 0 0 0 0.290196 0 0 0 1 0"/>
<feBlend mode="normal" in2="BackgroundImageFix" result="effect1_dropShadow_2703_375"/>
<feBlend mode="normal" in="SourceGraphic" in2="effect1_dropShadow_2703_375" result="shape"/>
</filter>
<clipPath id="clip0_2703_375">
<rect width="20.6691" height="22" fill="white" transform="translate(4 25.3345) rotate(-90)"/>
</clipPath>
</defs>
</svg>
